<?xml version="1.0" standalone="no"?>
<!DOCTYPE svg PUBLIC "-//W3C//DTD SVG 20010904//EN"
 "http://www.w3.org/TR/2001/REC-SVG-20010904/DTD/svg10.dtd">
<svg version="1.0" xmlns="http://www.w3.org/2000/svg"
 width="1920.000000pt" height="1080.000000pt" viewBox="0 0 1920.000000 1080.000000"
 preserveAspectRatio="xMidYMid meet">

<g transform="translate(0.000000,1080.000000) scale(0.100000,-0.100000)"
fill="#000000" stroke="none">
<path d="M0 5400 l0 -5400 9600 0 9600 0 0 5400 0 5400 -9600 0 -9600 0 0
-5400z m9150 3450 l5 -45 123 -3 122 -3 0 -34 0 -35 163 0 c113 0 167 -4 175
-12 7 -7 12 -29 12 -50 l0 -38 255 0 255 0 -2 -477 -3 -478 -255 0 -255 0 -5
45 -5 45 -170 5 -170 5 -3 36 -3 36 -117 -2 -117 -1 -3 -478 c-2 -453 -1 -478
15 -471 139 60 298 34 366 -58 51 -70 52 -75 51 -477 -1 -408 -1 -409 -60
-479 -48 -58 -97 -75 -204 -75 -78 0 -102 3 -135 21 -52 27 -87 67 -111 123
-18 43 -19 96 -22 1485 -1 792 0 1446 3 1453 3 9 19 12 47 10 43 -3 43 -3 48
-48z m-1375 -1526 c163 -23 332 -142 403 -283 18 -35 32 -72 32 -82 0 -10 4
-20 9 -23 5 -3 12 -23 16 -43 5 -21 10 -45 12 -53 2 -8 7 -108 10 -222 l6
-208 -206 0 -205 0 -5 178 c-2 98 -9 194 -16 214 -43 134 -217 181 -338 92
-20 -16 -39 -44 -52 -79 -21 -55 -21 -70 -21 -893 0 -530 4 -850 10 -873 16
-57 51 -102 100 -127 38 -20 56 -23 115 -19 39 2 84 11 101 20 34 17 76 75 89
122 5 17 10 171 12 343 3 293 2 312 -14 313 -10 0 -55 0 -100 0 -47 -1 -85 4
-88 9 -9 15 -9 365 -1 379 9 14 602 16 611 2 7 -12 7 -948 0 -1016 -7 -69 -27
-158 -37 -169 -4 -6 -8 -17 -8 -25 -1 -26 -62 -137 -103 -186 -125 -148 -367
-222 -610 -184 -237 37 -399 168 -471 381 -41 123 -44 193 -45 1023 -1 937 -1
941 81 1112 114 239 368 345 713 297z m-4595 -598 c4 -403 8 -555 16 -545 6 8
19 32 29 54 20 45 107 228 165 350 46 98 147 309 203 429 23 48 62 129 87 180
l45 91 204 3 c114 1 209 -2 214 -7 8 -8 -73 -172 -429 -868 l-67 -133 22 -72
c13 -40 35 -116 51 -168 16 -52 45 -149 65 -215 20 -66 40 -133 45 -150 5 -16
18 -61 30 -100 12 -38 30 -99 40 -135 27 -97 121 -412 130 -435 7 -19 29 -90
80 -265 12 -41 31 -99 40 -128 14 -40 15 -54 7 -58 -7 -2 -109 -3 -226 -2
-178 3 -215 6 -222 18 -8 17 -21 57 -85 275 -25 83 -63 211 -85 285 -22 74
-44 149 -49 165 -4 17 -22 77 -40 135 -17 58 -41 137 -52 175 -11 39 -24 78
-29 87 -5 10 -9 25 -9 34 0 30 -22 8 -55 -56 -18 -36 -52 -103 -76 -150 l-44
-85 -5 -440 -5 -440 -204 -3 c-115 -1 -209 2 -214 7 -10 10 -12 2705 -2 2721
4 7 80 9 213 8 l207 -3 5 -559z m1685 542 c3 -13 4 -628 3 -1368 l-3 -1345
-215 0 -215 0 -2 1354 c-2 961 1 1359 9 1368 8 10 59 13 214 13 203 0 204 0
209 -22z m944 -5 c10 -25 48 -170 72 -273 4 -19 12 -51 18 -70 9 -33 70 -276
126 -500 14 -58 30 -118 34 -135 14 -48 95 -369 129 -507 9 -38 20 -68 24 -68
5 0 8 350 8 779 0 650 2 780 14 790 9 8 69 11 192 9 l179 -3 0 -1365 0 -1365
-219 0 -219 0 -19 65 c-10 36 -23 83 -27 105 -7 33 -101 397 -131 510 -4 17
-31 122 -60 235 -28 113 -55 219 -60 235 -9 30 -34 126 -50 195 -4 19 -15 60
-23 90 -9 30 -27 102 -41 160 -28 112 -44 170 -56 210 -4 14 -14 51 -21 83 -6
31 -16 57 -21 57 -4 0 -8 -339 -8 -752 0 -414 0 -853 0 -976 l0 -222 -192 2
-193 3 -3 1355 c-1 745 0 1361 3 1368 3 9 66 12 268 12 l265 0 11 -27z m5671
-544 l5 -554 213 0 c117 0 218 2 223 6 6 3 9 208 9 547 0 412 3 542 12 548 20
13 408 11 419 -2 5 -7 8 -530 7 -1370 l-3 -1359 -195 -3 c-107 -1 -205 0 -218
3 l-23 6 2 572 c0 315 1 591 0 615 l-1 42 -225 0 -225 0 0 -620 0 -619 -202 1
c-112 0 -210 5 -219 9 -14 7 -15 143 -15 1364 1 1013 4 1358 13 1363 6 4 103
7 215 6 l203 0 5 -555z m1625 547 c13 -5 15 -178 13 -1368 l-3 -1363 -208 -2
c-184 -1 -208 1 -216 15 -7 13 -9 2683 -2 2714 0 3 9 8 18 10 28 5 383 0 398
-6z m743 -1164 l2 -1172 355 0 355 0 0 -195 c0 -194 0 -195 -22 -199 -13 -3
-268 -4 -568 -3 l-545 2 -3 1367 -2 1367 27 3 c16 2 111 3 213 2 l185 -1 3
-1171z m1335 1169 c16 -1 17 -64 17 -1171 l0 -1170 350 0 350 0 -2 -197 -3
-198 -545 -1 c-300 -1 -555 2 -567 7 l-21 8 -1 1355 c-1 1158 1 1356 13 1363
11 6 315 9 409 4z m-5008 -363 c3 -3 8 -118 6 -145 -1 -10 -36 -13 -141 -13
l-140 0 0 -150 0 -150 58 -1 c31 -1 74 0 94 1 64 3 75 -10 74 -82 -1 -35 -5
-69 -9 -75 -6 -9 -40 -13 -112 -13 l-105 0 -2 -232 -3 -233 -77 -3 c-43 -1
-80 2 -83 8 -6 10 -7 1078 -1 1089 4 6 435 5 441 -1z m-940 -1358 l0 -75 -87
-3 -88 -3 -2 -467 -3 -467 -85 0 -85 0 -3 467 -2 467 -88 3 -87 3 -3 78 -3 77
268 -2 268 -3 0 -75z m273 -147 l2 -223 90 0 90 0 0 225 0 226 88 -3 87 -3 0
-545 0 -545 -85 0 -85 0 -3 243 -2 242 -90 0 -90 0 -2 -242 -3 -243 -85 0 -85
0 -1 535 c0 294 2 541 4 548 3 9 26 12 86 10 l81 -3 3 -222z m988 157 c1 -36
-3 -71 -8 -77 -8 -9 -50 -13 -149 -13 l-139 0 0 -145 0 -144 113 -3 112 -3 0
-75 0 -75 -113 -3 -112 -3 2 -162 3 -162 138 0 c105 0 140 -4 146 -14 12 -18
7 -129 -5 -141 -7 -7 -96 -9 -235 -8 l-224 3 -3 535 c-1 294 0 541 3 548 3 10
56 12 237 10 l232 -3 2 -65z m6110 -1184 c19 -5 24 -13 24 -41 0 -25 -5 -35
-20 -40 -11 -4 -3168 -7 -7016 -7 -5438 0 -6998 3 -7009 12 -18 15 -19 54 -2
68 7 6 37 12 67 14 105 6 13932 0 13956 -6z m-7433 -322 c84 -21 127 -45 171
-95 43 -47 73 -108 92 -189 19 -79 19 -1031 0 -1110 -34 -142 -102 -227 -214
-271 -47 -18 -77 -22 -172 -22 -110 -1 -118 1 -182 32 -105 51 -159 122 -194
257 -22 86 -21 1037 2 1126 39 152 117 235 254 273 65 18 172 18 243 -1z
m1945 6 c122 -26 191 -81 243 -195 28 -63 32 -83 38 -195 9 -187 20 -170 -114
-170 -79 0 -116 4 -121 12 -5 7 -9 46 -9 88 -3 115 -14 166 -42 194 -53 54
-160 40 -198 -24 -19 -34 -20 -49 -20 -560 0 -499 1 -526 19 -553 20 -30 74
-57 113 -57 29 0 83 27 100 49 6 9 15 34 19 56 11 60 12 348 1 363 -5 6 -31
12 -58 12 -26 0 -51 5 -55 12 -6 9 -9 152 -5 216 1 10 42 12 187 10 l186 -3
-1 -295 c-1 -352 -4 -382 -45 -470 -11 -25 -17 -33 -60 -86 -60 -74 -218 -117
-352 -96 -168 26 -259 112 -300 282 -10 42 -13 177 -13 570 0 467 1 521 18
581 38 141 111 216 246 256 48 14 161 15 223 3z m-4628 -45 c91 -34 164 -116
190 -212 14 -53 19 -269 8 -343 -13 -83 -51 -154 -105 -192 l-45 -33 24 -15
c37 -23 83 -75 101 -113 26 -54 34 -140 36 -391 1 -127 6 -249 11 -271 5 -22
5 -44 1 -48 -4 -4 -61 -6 -127 -5 -118 3 -119 3 -132 30 -8 18 -14 101 -16
270 -5 269 -9 308 -33 349 -22 37 -53 49 -138 52 l-70 2 -5 -350 -5 -350 -125
0 -125 0 -3 810 c-1 446 0 816 3 824 8 21 494 10 555 -14z m1119 11 c8 -9 11
-50 9 -117 l-3 -104 -217 -3 c-120 -1 -218 -6 -219 -10 -1 -13 -1 -397 0 -409
1 -10 42 -13 170 -13 145 0 170 -2 175 -16 3 -9 6 -63 6 -120 l0 -104 -157 -1
c-87 -1 -166 -1 -175 0 -22 3 -19 31 -22 -251 -1 -189 1 -239 12 -243 7 -3
104 -5 214 -5 111 1 205 -3 210 -8 5 -5 7 -58 6 -118 l-3 -109 -350 0 -350 0
-3 810 c-1 446 0 816 3 823 7 19 678 18 694 -2z m889 6 c9 -6 12 -37 10 -118
l-3 -109 -213 -3 -212 -2 2 -223 3 -222 163 -3 c119 -2 162 -6 164 -15 4 -35
6 -185 2 -204 -4 -23 -6 -23 -169 -23 l-165 0 -2 -357 -3 -358 -119 -3 c-66
-1 -124 2 -129 7 -11 11 -14 1611 -3 1629 8 14 652 17 674 4z m1658 -2 c70
-11 137 -43 179 -85 72 -72 95 -154 95 -333 0 -192 -39 -304 -121 -351 -28
-15 -39 -41 -19 -41 16 0 80 -62 97 -94 35 -67 42 -136 43 -386 0 -182 4 -257
14 -292 18 -59 19 -58 -129 -58 -108 0 -115 1 -127 23 -8 15 -14 108 -18 302
-5 258 -7 283 -26 315 -11 19 -32 41 -46 48 -40 19 -145 27 -162 13 -13 -11
-15 -64 -15 -348 0 -185 -4 -340 -9 -345 -5 -5 -62 -7 -128 -6 l-119 3 -3 814
c-2 645 0 816 10 823 17 10 417 9 484 -2z m2162 -7 c5 -10 8 -63 8 -118 l-2
-100 -222 -3 -222 -2 0 -215 0 -215 173 -2 172 -3 3 -117 3 -118 -173 -2 -173
-3 -3 -242 c-1 -134 1 -244 5 -244 5 -1 102 -3 216 -5 115 -1 211 -5 215 -8 8
-9 10 -213 2 -226 -4 -7 -121 -9 -356 -8 l-349 3 -3 814 c-2 645 0 816 10 823
7 4 165 8 350 8 311 0 338 -1 346 -17z m772 -19 c78 -37 121 -77 154 -141 46
-92 48 -124 44 -683 l-3 -525 -32 -66 c-42 -87 -110 -147 -195 -174 -55 -18
-92 -20 -303 -20 l-240 0 -3 810 c-1 446 0 816 3 823 4 11 52 13 258 10 l252
-3 65 -31z m410 -1819 c11 -21 11 -29 0 -50 l-13 -25 -3880 0 c-3597 0 -3882
1 -3899 17 -22 20 -23 41 -1 65 16 17 150 18 3898 18 l3882 0 13 -25z"/>
<path d="M9259 6741 l-29 -29 0 -339 c0 -186 3 -348 6 -361 7 -25 51 -52 83
-52 33 0 68 21 80 47 16 35 15 702 -2 724 -36 47 -97 51 -138 10z"/>
<path d="M9004 3823 c-34 -6 -63 -45 -72 -94 -5 -24 -8 -267 -8 -539 l1 -495
23 -37 c34 -55 97 -72 166 -43 72 30 71 17 70 600 0 488 -1 522 -18 551 -33
55 -84 73 -162 57z"/>
<path d="M6192 3568 l3 -233 68 2 c77 3 111 16 141 56 19 26 21 42 21 176 0
208 -16 231 -160 231 l-75 0 2 -232z"/>
<path d="M9927 3793 c-4 -3 -7 -104 -7 -224 0 -213 1 -219 21 -230 25 -13 105
-5 155 16 57 23 68 60 68 220 0 154 -8 181 -65 211 -28 14 -160 20 -172 7z"/>
<path d="M12772 3218 l3 -583 77 -1 c89 0 129 13 155 52 17 26 18 61 18 529 0
475 -1 501 -19 528 -30 44 -66 57 -156 57 l-80 0 2 -582z"/>
</g>
</svg>
